<svg height="512" viewBox="0 0 64 64" width="512" xmlns="http://www.w3.org/2000/svg"><g id="smartphone-money-pay_in-pay_out-security" data-name="smartphone-money-pay in-pay out-security"><rect fill="#46f8ff" height="58" rx="2" width="32" x="29" y="3"/><path d="m61 5v54a2.006 2.006 0 0 1 -2 2h-4a2.006 2.006 0 0 0 2-2v-54a2.006 2.006 0 0 0 -2-2h4a2.006 2.006 0 0 1 2 2z" fill="#00e7f0"/><path d="m56 3-1 4h-20l-1-4z" fill="#ff7956"/><path d="m56 3-1 4h-4l1-4z" fill="#ff5023"/><path d="m52 27v3.51a5.993 5.993 0 0 1 -1.76 4.25l-5.24 5.24-5.24-5.24a5.993 5.993 0 0 1 -1.76-4.25v-3.51l7-3z" fill="#ffde55"/><path d="m52 27v3.51a5.993 5.993 0 0 1 -1.76 4.25l-5.24 5.24-2-2 3.24-3.24a5.993 5.993 0 0 0 1.76-4.25v-3.51l-5-2.14 2-.86z" fill="#ebbf00"/><path d="m29 21.82a14.988 14.988 0 1 1 -11-4.82 14.87 14.87 0 0 1 11 4.82z" fill="#ffd422"/><path d="m33 32a15.03 15.03 0 0 1 -15 15 14.712 14.712 0 0 1 -2.5-.21 15 15 0 0 0 0-29.58 14.712 14.712 0 0 1 2.5-.21 15.03 15.03 0 0 1 15 15z" fill="#ebbf00"/><path d="m25 6v4h-14v3l-6-5 6-5v3z" fill="#ff3051"/><path d="m25 6v2h-20l6-5v3z" fill="#cd2a00"/><path d="m25 56-6 5v-3h-14v-4h14v-3z" fill="#2488ff"/><path d="m25 56h-20v-2h14v-3z" fill="#006df0"/><path d="m25 6v2h-20l6-5v3z" fill="#cd2a00"/><path d="m25 56h-20v-2h14v-3z" fill="#006df0"/><path d="m59 2h-28a3.009 3.009 0 0 0 -3 3v14.53a16 16 0 1 0 0 24.94v14.53a3.009 3.009 0 0 0 3 3h28a3.009 3.009 0 0 0 3-3v-54a3.009 3.009 0 0 0 -3-3zm-4.28 2-.5 2h-18.44l-.5-2zm-36.72 42a14 14 0 1 1 14-14 14.015 14.015 0 0 1 -14 14zm42 13a1 1 0 0 1 -1 1h-28a1 1 0 0 1 -1-1v-16.45a15.913 15.913 0 0 0 0-21.1v-16.45a1 1 0 0 1 1-1h2.22l.81 3.24a1 1 0 0 0 .97.76h20a1 1 0 0 0 .97-.76l.81-3.24h2.22a1 1 0 0 1 1 1z"/><path d="m25 5h-13v-2a1 1 0 0 0 -1.64-.77l-6 5a1 1 0 0 0 0 1.54l6 5a1 1 0 0 0 .64.23 1.023 1.023 0 0 0 .42-.09 1 1 0 0 0 .58-.91v-2h13a1 1 0 0 0 1-1v-4a1 1 0 0 0 -1-1zm-1 4h-13a1 1 0 0 0 -1 1v.87l-3.44-2.87 3.44-2.87v.87a1 1 0 0 0 1 1h13z"/><path d="m25.64 55.23-6-5a1 1 0 0 0 -1.64.77v2h-13a1 1 0 0 0 -1 1v4a1 1 0 0 0 1 1h13v2a1 1 0 0 0 .58.91 1.023 1.023 0 0 0 .42.09 1 1 0 0 0 .64-.23l6-5a1 1 0 0 0 0-1.54zm-5.64 3.64v-.87a1 1 0 0 0 -1-1h-13v-2h13a1 1 0 0 0 1-1v-.87l3.44 2.87z"/><path d="m18 27a2 2 0 0 1 2 2h2a4 4 0 0 0 -3-3.858v-2.142h-2v2.142a3.992 3.992 0 0 0 1 7.858 2 2 0 1 1 -2 2h-2a4 4 0 0 0 3 3.858v2.142h2v-2.142a3.992 3.992 0 0 0 -1-7.858 2 2 0 0 1 0-4z"/><path d="m9.515 23.515a12.013 12.013 0 0 0 0 16.97l1.414-1.414a10.011 10.011 0 0 1 0-14.142z"/><path d="m26.485 23.515-1.414 1.414a10.011 10.011 0 0 1 0 14.142l1.414 1.414a12.013 12.013 0 0 0 0-16.97z"/><path d="m52.394 26.081-7-3a1.007 1.007 0 0 0 -.788 0l-7 3a1 1 0 0 0 -.606.919v3.515a6.958 6.958 0 0 0 2.05 4.95l5.243 5.242a1 1 0 0 0 1.414 0l5.243-5.242a6.958 6.958 0 0 0 2.05-4.95v-3.515a1 1 0 0 0 -.606-.919zm-1.394 4.434a4.973 4.973 0 0 1 -1.464 3.536l-4.536 4.535-4.535-4.535a4.97 4.97 0 0 1 -1.465-3.536v-2.856l6-2.571 6 2.571z"/><path d="m43.707 30.293-1.414 1.414 2 2a1 1 0 0 0 1.414 0l4-4-1.414-1.414-3.293 3.293z"/></g></svg>