<svg id="Capa_1" enable-background="new 0 0 511 511" height="512" viewBox="0 0 511 511" width="512" xmlns="http://www.w3.org/2000/svg"><g><g id="Filled_27_"><circle cx="270.503" cy="222.5" fill="#e1fda0" r="185"/><path d="m270.503 377.5c-96.959 0-176.728-74.98-184.389-170-8.712 108.047 76.867 200 184.389 200 107.507 0 193.106-91.933 184.389-200-7.66 95.02-87.43 170-184.389 170z" fill="#c3f839"/><path d="m395.503 321.5 13-45-25-8-19 23 1 23z" fill="#a0804c"/><path d="m245.503 362.5-13-40 8-23-18-32 4-23-21-11-35 8-22-12-14-31 3-34 22-33 3-19 38-17h34v19l28 12 10-14 48 11 33 74h21l-12 47-33 35 5 36-19 11 2 19-14 10-1 15-18 5h-22z" fill="#a0804c"/><path d="m284.503 345.5h-22l-30-23 13 40 17 13h22l18-5 1-15 14-10-2-19z" fill="#876c3e"/><g fill="#ddddde"><path d="m380.503 503.5h-220v-16c0-11.046 8.954-20 20-20h180c11.046 0 20 8.954 20 20z"/><path d="m255.503 437.5h30v30h-30z"/></g></g><g fill="#fff"><path d="m358.503 110h15v15h-15z"/><path d="m188.503 157h15v15h-15z"/><path d="m144.503 296h15v15h-15z"/><path d="m164.503 326h15v15h-15z"/></g><g id="Outline_27_"><path d="m408.147 397.327-9.287-11.779c-15.567 12.273-32.474 22.093-50.35 29.357l-5.179-14.226c70.14-28.774 119.673-97.796 119.673-178.18 0-130.178-127.312-223.124-251.238-183.324l-5.134-14.104c20.13-6.528 41.593-10.071 63.871-10.071v-15c-199.765 0-295.771 241.392-157.331 379.831 36.675 36.675 83.9 58.966 134.831 64.048v16.121h-67.5c-15.164 0-27.5 12.337-27.5 27.5v23.5h235v-23.5c0-15.163-12.337-27.5-27.5-27.5h-67.5v-16.114c42.081-4.169 81.517-20.048 115.144-46.559zm-.452-287.327h-19.192v15h30.247c3.194 4.841 6.157 9.845 8.875 15h-23.122v15h30.153c47.95 116.18-37.852 245-164.153 245-97.874 0-177.5-79.626-177.5-177.5 0-166.229 209.144-240.982 314.692-112.5zm-47.192 365c6.893 0 12.5 5.607 12.5 12.5v8.5h-205v-8.5c0-6.893 5.607-12.5 12.5-12.5zm-97.5-15v-15h15v15zm-200-237.5c0-86.854 53.646-161.402 129.538-192.285l5.135 14.105c-70.141 28.774-119.673 97.796-119.673 178.18 0 130.177 127.311 223.123 251.237 183.325l5.177 14.222c-134.043 43.262-271.414-57.237-271.414-197.547z"/><path d="m126.86 199.797 15.844 35.083 26.702 14.564 35.07-8.016 13.701 7.177-3.521 20.242 17.652 31.382-7.718 22.189 14.501 44.62 20.873 15.962h25.562l24.107-6.696 1.117-16.764 14.669-10.478-1.948-18.51 19.154-11.089-5.199-37.435 31.864-33.795 14.869-58.233h-25.788l-32.542-72.975-56.522-12.952-9.397 13.155-17.906-7.674v-21.554h-43.101l-43.173 19.314-3.378 21.393-22.151 33.227zm17.511-27.797h29.133v-15h-21.986l15.138-22.707 2.622-16.607 32.826-14.686h24.899v16.445l38.094 16.326 10.603-14.845 39.478 9.047 33.458 75.027h16.212l-9.132 35.766-34.136 36.205 4.801 34.565-18.846 10.911 2.052 19.49-13.331 9.522-.883 13.236-11.892 3.305h-18.438l-13.128-10.039-11.499-35.38 8.282-23.811-18.347-32.618 4.479-25.758-28.299-14.823-34.93 7.984-17.298-9.436-9.99-22.12h15.19v-15h-16.456z"/><path d="m356.885 288.946 1.372 31.564 42.476 9.911 16.999-58.844-36.777-11.769zm42.39-7.524-9.001 31.156-17.524-4.089-.628-14.436 13.931-16.863z"/><path d="m264.503 221h13.5v37.5h15v-16.5h12.5c9.649 0 17.5-7.851 17.5-17.5v-20h-15v20c0 4.248-6.449 1.861-15 2.5v-58.5h-15v37.5h-13.5c-4.381 0-1.682-6.097-2.5-22.5h-15v20c0 9.649 7.851 17.5 17.5 17.5z"/></g></g></svg>